<svg xmlns="http://www.w3.org/2000/svg" width="32" height="32" viewBox="0 0 32 32">
  <defs>
    <linearGradient id="g" x1="0%" y1="0%" x2="100%" y2="100%">
      <stop offset="0%" style="stop-color:#10b981"/>
      <stop offset="100%" style="stop-color:#06b6d4"/>
    </linearGradient>
  </defs>
  <rect width="32" height="32" rx="8" fill="url(#g)"/>
  <path d="M16 8c-2.21 0-4 1.19-4 2.67s1.79 2.67 4 2.67 4 1.19 4 2.67-1.79 2.67-4 2.67m0-10.68c1.48 0 2.77.54 3.47 1.33M16 8V6.67m0 1.33v10.67m0 0v1.33m0-1.33c-1.48 0-2.77-.54-3.47-1.33M28 16a12 12 0 11-24 0 12 12 0 0124 0z" fill="none" stroke="white" stroke-width="1.5" stroke-linecap="round" stroke-linejoin="round"/>
</svg>
